***************************************************************

[IMG]http://www.torrentforce.org/imghost/3/greyshadow_tfbanner.png[/IMG]

***************************************************************

[IMG]http://www.torrentforce.org/imghost/4/greyshadow_iceageamammothchristmas.jpg[/IMG]

***************************************************************

FILM TITLE: Ice Age: A Mammoth Christmas (TV 2011) 

***************************************************************

Genre:   Animation | Short 

Release:  2011

Director:  Karen Disher

Stars:  Ray Romano, John Leguizamo and Denis Leary

Country:  USA

Language:  English

Plot:
When Sid accidentally destroys Manny's heirloom Christmas rock 
and ends up on Santa's naughty list, he leads a hilarious quest to the 
North Pole to make things right and ends up making things much 
worse. Now it's up to Manny and his prehistoric posse to band 
together and save Christmas for the entire world.

IMDB Rating:  6.6/10 from 840 users
 
http://www.imdb.com/title/tt2100546/ 

****************************************************************

[IMG]http://www.torrentforce.org/imghost/4/greyshadow_iceagechristmasavchdbdrebuilder.png[/IMG]
[IMG]http://www.torrentforce.org/imghost/4/greyshadow_iceageavchd1.png[/IMG]
[IMG]http://www.torrentforce.org/imghost/4/greyshadow_iceageavchd2.png[/IMG]
[IMG]http://www.torrentforce.org/imghost/4/greyshadow_iceageavchd3.png[/IMG]
[IMG]http://www.torrentforce.org/imghost/4/greyshadow_iceageavchd4.png[/IMG]

****************************************************************

[IMG]http://www.torrentforce.org/imghost/2/greyshadow_mediainfo.png[/IMG]
General
ID                               : 1 (0x1)
Complete name                    : Ice Age-A Mammoth Christmas 2011 1080p BRRip AVCHD ac3 subs (m2ts) [TFRG]\ICEAGE_CHRISTMAS\BDMV\STREAM\00000.m2ts
Format                           : BDAV
Format/Info                      : Blu-ray Video
File size                        : 3.15 GiB
Duration                         : 25mn 33s
Overall bit rate mode            : Variable
Overall bit rate                 : 17.7 Mbps
Maximum Overall bit rate         : 35.5 Mbps

Video
ID                               : 4113 (0x1011)
Menu ID                          : 1 (0x1)
Format                           : AVC
Format/Info                      : Advanced Video Codec
Format profile                   : High@L4.0
Format settings, CABAC           : Yes
Format settings, ReFrames        : 4 frames
Codec ID                         : 27
Duration                         : 25mn 33s
Bit rate mode                    : Variable
Bit rate                         : 15.0 Mbps
Width                            : 1920 pixels
Height                           : 1080 pixels
Display aspect ratio             : 16:9
Frame rate                       : 23.976 fps
Color space                      : YUV
Chroma subsampling               : 4:2:0
Bit depth                        : 8 bits
Scan type                        : Progressive
Bits/(Pixel*Frame)               : 0.302
Stream size                      : 2.68 GiB (85%)
Writing library                  : x264 core 118 r2085 8a62835

Audio #1
ID                               : 4352 (0x1100)
Menu ID                          : 1 (0x1)
Format                           : AC-3
Format/Info                      : Audio Coding 3
Mode extension                   : CM (complete main)
Codec ID                         : 129
Duration                         : 25mn 33s
Bit rate mode                    : Constant
Bit rate                         : 640 Kbps
Channel(s)                       : 6 channels
Channel positions                : Front: L C R, Side: L R, LFE
Sampling rate                    : 48.0 KHz
Bit depth                        : 16 bits
Compression mode                 : Lossy
Stream size                      : 117 MiB (4%)
Language                         : English

Audio #2
ID                               : 4353 (0x1101)
Menu ID                          : 1 (0x1)
Format                           : AC-3
Format/Info                      : Audio Coding 3
Mode extension                   : CM (complete main)
Codec ID                         : 129
Duration                         : 25mn 33s
Bit rate mode                    : Constant
Bit rate                         : 640 Kbps
Channel(s)                       : 6 channels
Channel positions                : Front: L C R, Side: L R, LFE
Sampling rate                    : 48.0 KHz
Bit depth                        : 16 bits
Compression mode                 : Lossy
Stream size                      : 117 MiB (4%)
Language                         : Spanish

Audio #3
ID                               : 4354 (0x1102)
Menu ID                          : 1 (0x1)
Format                           : AC-3
Format/Info                      : Audio Coding 3
Mode extension                   : CM (complete main)
Codec ID                         : 129
Duration                         : 25mn 33s
Bit rate mode                    : Constant
Bit rate                         : 640 Kbps
Channel(s)                       : 6 channels
Channel positions                : Front: L C R, Side: L R, LFE
Sampling rate                    : 48.0 KHz
Bit depth                        : 16 bits
Compression mode                 : Lossy
Stream size                      : 117 MiB (4%)
Language                         : French

Text #1
ID                               : 4608 (0x1200)
Menu ID                          : 1 (0x1)
Format                           : PGS
Codec ID                         : 144
Language                         : English

Text #2
ID                               : 4609 (0x1201)
Menu ID                          : 1 (0x1)
Format                           : PGS
Codec ID                         : 144
Language                         : Spanish

Text #3
ID                               : 4610 (0x1202)
Menu ID                          : 1 (0x1)
Format                           : PGS
Codec ID                         : 144
Language                         : French

****************************************************************
 
http://www.torrentforce.org/imghost/4/greyshadow_avchdheader.png

Burn to a DVD disc, play in a Bluray player, watch on PC or most Bluray media players

****************************************************************

7th October 2011

I am re-introducing my warning to all downloaders, please please
please use a proxy or vpn service, it is the only secure way to
keep your own ip address from being seen during downloading or
uploading/seeding, this WILL stop isp letters, as for advice to 
which one then thats simple, vpntunnel.se server based in Sweden 
is the right one to use, I have cancelled my vpn and transfered 
to a Swedish one already !!! enough said. 

****************************************************************

A big thanks to all the sites out there who care and share and
who make it possible for you to download this torrent for free.

Greetz to Westy, Ripwyn, mustang, noir, Blackjesus, MXMG, The Stig 
and all the other outstanding members of our community of file 
sharers and a special mention to our friends at 1337x.

****************************************************************